<svg width="18" height="18" viewBox="0 0 18 18" fill="none" xmlns="http://www.w3.org/2000/svg">
<path fill-rule="evenodd" clip-rule="evenodd" d="M0.645874 2.15641C0.645874 1.78822 0.944351 1.48975 1.31254 1.48975H3.91999C4.23774 1.48975 4.51133 1.714 4.57369 2.02557L5.11879 4.74906H15.6535C15.8522 4.74906 16.0405 4.83767 16.1672 4.99076C16.2938 5.14384 16.3456 5.34544 16.3084 5.54061L15.2654 11.0097L15.2644 11.0147L15.2644 11.0147C15.1743 11.4683 14.9276 11.8757 14.5673 12.1657C14.209 12.4542 13.761 12.6082 13.3011 12.601H6.97639C6.51652 12.6082 6.06854 12.4542 5.71016 12.1657C5.35008 11.8759 5.10338 11.4686 5.0132 11.0153L5.01308 11.0147L3.92432 5.57495C3.91985 5.5567 3.91612 5.53816 3.91319 5.51936L3.37353 2.82308H1.31254C0.944351 2.82308 0.645874 2.5246 0.645874 2.15641ZM6.5285 13.8757C5.80055 13.8757 5.21043 14.4658 5.21043 15.1938C5.21043 15.9217 5.80055 16.5118 6.5285 16.5118C7.25644 16.5118 7.84656 15.9217 7.84656 15.1938C7.84656 14.4658 7.25644 13.8757 6.5285 13.8757ZM13.6985 13.8757C12.9705 13.8757 12.3804 14.4658 12.3804 15.1938C12.3804 15.9217 12.9705 16.5118 13.6985 16.5118C14.4264 16.5118 15.0166 15.9217 15.0166 15.1938C15.0166 14.4658 14.4264 13.8757 13.6985 13.8757Z" fill="#2D3440"/>
</svg>
