<svg width="15" height="14" fill="none" xmlns="http://www.w3.org/2000/svg"><path fill-rule="evenodd" clip-rule="evenodd" d="M1.17.25a.67.67 0 1 0 0 1.33h1.77l.47 2.34v.05l.97 4.84a1.83 1.83 0 0 0 1.82 1.46h5.62a1.83 1.83 0 0 0 1.82-1.46V8.8l.93-4.86a.67.67 0 0 0-.66-.8h-9.3L4.14.8a.67.67 0 0 0-.66-.54H1.17Zm4.52 8.3-.81-4.07h8.23l-.78 4.07a.5.5 0 0 1-.49.4H6.18a.5.5 0 0 1-.49-.4ZM4.56 12.5a1.25 1.25 0 1 1 2.49 0 1.25 1.25 0 0 1-2.5 0Zm6.37 0a1.25 1.25 0 1 1 2.5 0 1.25 1.25 0 0 1-2.5 0Z" fill="#FCFCFC"/></svg>