<svg width="24" height="24" fill="none" xmlns="http://www.w3.org/2000/svg"><path d="M20.06 7.72a9.07 9.07 0 0 0 .35-7.17.75.75 0 0 0-.26-.36.8.8 0 0 0-1.17.22c-1 1.72-3.12 4.48-4.69 4.61h-.07a13 13 0 0 0-2.17-.23c-.74.02-1.47.1-2.19.23h-.05C8.25 4.9 6.08 2.14 5.09.42A.77.77 0 0 0 4.77.1a.8.8 0 0 0-.88.07c-.13.1-.21.23-.26.38a9 9 0 0 0 .3 7.16C2.59 7.87.87 8.3.24 9.36a1.61 1.61 0 0 0 0 1.66 1.97 1.97 0 0 0 1.82.94 5.68 5.68 0 0 0 1.89-.36c0 .41.03.82.1 1.22.35 1.34.8 2.65 1.37 3.92l.4 1c-.26.6-.46 1.23-.6 1.87a3.24 3.24 0 0 0 .87 2.5C7.2 23.37 9.2 24 12.02 24c2.83 0 4.83-.63 5.95-1.89a3.3 3.3 0 0 0 .87-2.5c-.14-.64-.34-1.26-.59-1.87l.4-1A24.46 24.46 0 0 0 20 12.82c.08-.4.11-.8.1-1.22.59.22 1.2.35 1.83.37.37.02.73-.05 1.06-.22.32-.17.59-.42.77-.73a1.61 1.61 0 0 0 0-1.66c-.62-1.03-2.34-1.48-3.7-1.64Zm-.74-5.02c.28 1.58 0 3.2-.78 4.61a5.61 5.61 0 0 0-2.11-1.6c1.12-.85 2.1-1.86 2.89-3Zm-14.6 0A12.72 12.72 0 0 0 7.6 5.72c-.55.23-1.05.56-1.48.95-.22.21-.43.43-.63.66a6.96 6.96 0 0 1-.78-4.63Zm-3.08 7.6c-.07-.12-.04-.16 0-.2.18-.29 1.09-.75 2.82-.92a9.6 9.6 0 0 0-.23.66c-1.02.51-2.38.83-2.59.46Zm16.83 2.26a24.98 24.98 0 0 1-1.26 3.63c-.2.47-.39.94-.54 1.42l-.05.23.09.21c.24.58.44 1.17.6 1.77a1.75 1.75 0 0 1-.51 1.3c-.56.63-1.84 1.37-4.77 1.37-2.93 0-4.2-.75-4.77-1.37a1.82 1.82 0 0 1-.5-1.3c.15-.6.36-1.2.6-1.77l.09-.21-.05-.23c-.15-.49-.33-.96-.54-1.42-.52-1.19-.95-2.41-1.28-3.66a5.25 5.25 0 0 1 1.66-4.8c1.18-1.15 3.85-1.4 4.78-1.41.92 0 3.54.26 4.79 1.43a5.34 5.34 0 0 1 1.66 4.78v.03Zm3.9-2.26c-.2.36-1.56.05-2.53-.45a7.53 7.53 0 0 0-.22-.67c1.71.17 2.61.63 2.78.93.04.03.06.07-.01.19h-.02Z" fill="#2D3440"/></svg>