<svg width="28" height="28" viewBox="0 0 28 28" fill="none" xmlns="http://www.w3.org/2000/svg">
<path fill-rule="evenodd" clip-rule="evenodd" d="M26 14C26 20.6274 20.6274 26 14 26C7.37258 26 2 20.6274 2 14C2 7.37258 7.37258 2 14 2C20.6274 2 26 7.37258 26 14ZM16.4286 14.9H15V20H12.7143V14.9H11V12.5H12.7143V10.82C12.7143 8.9942 13.816 8 15.3674 8C16.1103 8 16.8137 8.0582 17 8.084V10.1H16.1429C15 10.1 15 10.682 15 11.3V12.5H17L16.4286 14.9Z" fill="#FCFCFC"/>
<path d="M14 24C8.47715 24 4 19.5228 4 14H0C0 21.732 6.26801 28 14 28V24ZM24 14C24 19.5228 19.5228 24 14 24V28C21.732 28 28 21.732 28 14H24ZM14 4C19.5228 4 24 8.47715 24 14H28C28 6.26801 21.732 0 14 0V4ZM14 0C6.26801 0 0 6.26801 0 14H4C4 8.47715 8.47715 4 14 4V0Z" fill="#FCFCFC" fill-opacity="0.2"/>
</svg>
