<svg width="24" height="24" fill="none" xmlns="http://www.w3.org/2000/svg"><path d="M12 0a6.007 6.007 0 0 0-5.958 5.294H6V17.21h12V5.294h-.042A6.007 6.007 0 0 0 12 0Zm4.588 15.798H7.412V9.289a1.264 1.264 0 0 0 1.087.452c.91 0 1.503-.508 1.503-1.15v-.615a.605.605 0 0 1 .851-.62.607.607 0 0 1 .356.62V10.3a1.32 1.32 0 0 0 1.497 1.292 1.313 1.313 0 0 0 1.496-1.236v-1.56a.951.951 0 0 1 1.333-.954.953.953 0 0 1 .566.954.281.281 0 0 0 0 .064.797.797 0 0 0 .473.628v6.353l.014-.042ZM10.941 22.941a1.059 1.059 0 1 0 2.118 0v-5.026H10.94v5.026Z" fill="#2D3440"/></svg>