<svg width="16" height="16" fill="none" xmlns="http://www.w3.org/2000/svg"><path fill-rule="evenodd" clip-rule="evenodd" d="M8.0003 2.3333c-3.1298 0-5.667 2.5372-5.667 5.667 0 3.1297 2.5372 5.6669 5.667 5.6669 3.1297 0 5.6669-2.5372 5.6669-5.667 0-3.1297-2.5372-5.6669-5.667-5.6669ZM1 8.0003C1 4.134 4.1341 1 8.0003 1c3.8661 0 7.0002 3.1341 7.0002 7.0003 0 3.8661-3.1341 7.0002-7.0002 7.0002C4.134 15.0005 1 11.8664 1 8.0003Zm7-.667A.6667.6667 0 0 1 8.6668 8v2.5334a.6667.6667 0 1 1-1.3333 0V8A.6667.6667 0 0 1 8 7.3333ZM8 4.8a.6667.6667 0 1 0 0 1.3333h.0067a.6667.6667 0 0 0 0-1.3333h-.0066Z" fill="#2D3440"/></svg>