<svg width="16" height="16" fill="none" xmlns="http://www.w3.org/2000/svg"><path fill-rule="evenodd" clip-rule="evenodd" d="M16 8c0 4.4183-3.5817 8-8 8s-8-3.5817-8-8 3.5817-8 8-8 8 3.5817 8 8ZM9.6488 4.024C9.2224 4.004 9.0868 4 8 4s-1.2224.0052-1.6488.024c-.4264.02-.716.0868-.9712.186a1.9587 1.9587 0 0 0-.7088.4612A1.952 1.952 0 0 0 4.21 5.38c-.0992.2552-.166.5448-.186.9712C4.004 6.7776 4 6.9132 4 8s.0052 1.2224.024 1.6488c.02.426.0868.7164.186.9712.1004.267.2578.5089.4612.7088.1998.2036.4417.361.7088.4612.2552.0988.5452.166.9712.186.4264.02.562.024 1.6488.024s1.2224-.0052 1.6488-.024c.426-.02.7164-.0872.9712-.186a1.9664 1.9664 0 0 0 .7088-.4612 1.954 1.954 0 0 0 .4612-.7088c.0988-.2552.166-.5452.186-.9712.02-.4264.024-.562.024-1.6488s-.0052-1.2224-.024-1.6488c-.02-.426-.0872-.7164-.186-.9712a1.963 1.963 0 0 0-.4612-.7088c-.2224-.222-.4448-.3596-.7088-.4612-.2552-.0992-.5452-.166-.9712-.186Zm-3.063 2.5618A2 2 0 1 1 9.4142 9.414a2 2 0 0 1-2.8284-2.8283Zm3.8678-1.0393a.5002.5002 0 0 1 0 .707A.5002.5002 0 0 1 9.6 5.9a.5.5 0 0 1 .8536-.3536Zm-1.605 1.605a1.2 1.2 0 1 0-1.6971 1.697 1.2 1.2 0 0 0 1.697-1.697Z" fill="#2D3440"/></svg>