<svg width="24" height="24" viewBox="0 0 28 28" fill="none" xmlns="http://www.w3.org/2000/svg">
  <path fill-rule="evenodd" clip-rule="evenodd" d="M26 14a12 12 0 1 1-24 0 12 12 0 0 1 24 0Zm-9.53-5.96C15.83 8 15.63 8 14 8c-1.63 0-1.83 0-2.47.04-.64.03-1.08.13-1.46.28a3.16 3.16 0 0 0-1.76 1.75c-.14.38-.24.82-.27 1.46C8 12.17 8 12.37 8 14c0 1.63 0 1.83.04 2.47.03.64.13 1.08.28 1.46a3.16 3.16 0 0 0 1.75 1.76c.38.14.82.24 1.46.27.64.03.84.04 2.47.04 1.63 0 1.83 0 2.47-.04a4.43 4.43 0 0 0 1.46-.28 3.16 3.16 0 0 0 1.76-1.75c.14-.38.24-.82.27-1.46.03-.64.04-.84.04-2.47 0-1.63 0-1.83-.04-2.47a4.43 4.43 0 0 0-.28-1.46c-.15-.4-.38-.76-.69-1.06a2.93 2.93 0 0 0-1.06-.7 4.42 4.42 0 0 0-1.46-.27Zm-4.6 3.84a3 3 0 1 1 4.25 4.24 3 3 0 0 1-4.24-4.24Zm5.81-1.56a.75.75 0 1 1-1.06 1.06.75.75 0 0 1 1.06-1.06Zm-2.4 2.4a1.8 1.8 0 1 0-2.55 2.55 1.8 1.8 0 0 0 2.54-2.54Z" fill="#FCFCFC"/>
  <path d="M14 24A10 10 0 0 1 4 14H0a14 14 0 0 0 14 14v-4Zm10-10a10 10 0 0 1-10 10v4a14 14 0 0 0 14-14h-4ZM14 4a10 10 0 0 1 10 10h4A14 14 0 0 0 14 0v4Zm0-4A14 14 0 0 0 0 14h4A10 10 0 0 1 14 4V0Z" fill="#FCFCFC" fill-opacity="1"/>
</svg>
