<svg width="24" height="24" viewBox="0 0 16 16" fill="none" xmlns="http://www.w3.org/2000/svg">
  <path fill-rule="evenodd" clip-rule="evenodd" d="M16 8A8 8 0 1 1 0 8a8 8 0 0 1 16 0ZM9.65 4.02C9.22 4 9.09 4 8 4c-1.09 0-1.22 0-1.65.02-.43.02-.71.1-.97.19-.27.1-.5.26-.7.46-.21.2-.37.44-.47.71-.1.26-.17.54-.19.97C4 6.78 4 6.91 4 8c0 1.09 0 1.22.02 1.65.02.42.1.72.19.97.1.27.26.5.46.7.2.21.44.37.71.47.26.1.55.17.97.19.43.02.56.02 1.65.02 1.09 0 1.22 0 1.65-.02.42-.02.72-.1.97-.19.27-.1.5-.26.7-.46.21-.2.37-.44.47-.71.1-.26.17-.55.19-.97C12 9.22 12 9.09 12 8c0-1.09 0-1.22-.02-1.65a2.95 2.95 0 0 0-.19-.97c-.1-.27-.26-.5-.46-.7a1.95 1.95 0 0 0-.71-.47c-.26-.1-.55-.17-.97-.19ZM6.59 6.6A2 2 0 1 1 9.4 9.4a2 2 0 0 1-2.8-2.8Zm3.86-1.04a.5.5 0 1 1-.7.7.5.5 0 0 1 .7-.7Zm-1.6 1.6a1.2 1.2 0 1 0-1.7 1.7 1.2 1.2 0 0 0 1.7-1.7Z" fill="#2D3440"/>
</svg>
