<svg width="24" height="24" fill="none" xmlns="http://www.w3.org/2000/svg"><path d="M19 13.86C18.68 7.06 12.75.46 12.5.18h-.04l-.08-.1-.1-.05h-.37L11.78 0h-.03l-.12.09-.08.06h-.03C11.25.47 5.32 7.06 5 13.86V14.8a9.8 9.8 0 0 0 6.84 9.2h.33A9.8 9.8 0 0 0 19 14.8V13.86ZM6.8 11.35a16.67 16.67 0 0 0 4.53 2.94v3.26c-1.66-.86-4.22-2.4-4.97-3.76.06-.82.2-1.64.41-2.44h.02Zm1.35-3.66a8.33 8.33 0 0 0 3.18 2.2v2.82a13.01 13.01 0 0 1-4.07-2.87c.26-.73.55-1.45.89-2.15Zm8.61 2.15a12.98 12.98 0 0 1-4.06 2.87V9.89a8.34 8.34 0 0 0 3.15-2.2c.34.7.65 1.4.91 2.13v.02ZM12.7 8.37V2.64c.9 1.17 1.73 2.41 2.47 3.7a6.21 6.21 0 0 1-2.49 2l.02.03Zm0 9.2v-3.28c1.65-.71 3.19-1.7 4.55-2.93.2.8.34 1.63.4 2.45-.75 1.34-3.3 2.87-4.97 3.73l.02.03Zm-1.36-9.2a6.15 6.15 0 0 1-2.49-2.02c.74-1.31 1.57-2.56 2.48-3.75l.01 5.77ZM6.5 16.06a22.62 22.62 0 0 0 4.83 3.07v3.15a8.01 8.01 0 0 1-3.17-2.46 8.64 8.64 0 0 1-1.66-3.76Zm6.18 6.23v-3.17c1.73-.8 3.35-1.83 4.83-3.06a8.53 8.53 0 0 1-1.65 3.77 7.9 7.9 0 0 1-3.18 2.46Z" fill="#2D3440"/></svg>