<svg width="16" height="16" fill="none" xmlns="http://www.w3.org/2000/svg"><path fill-rule="evenodd" clip-rule="evenodd" d="M9 1.6667A.6667.6667 0 0 1 9.6667 1h2.6666a1.9997 1.9997 0 0 1 2 2v9.3333a1.9996 1.9996 0 0 1-2 2H9.6667a.6666.6666 0 1 1 0-1.3333h2.6666a.6664.6664 0 0 0 .4714-.1953.6664.6664 0 0 0 .1953-.4714V3a.6664.6664 0 0 0-.6667-.6667H9.6667A.6667.6667 0 0 1 9 1.6667ZM5.8619 3.8619a.6667.6667 0 0 1 .9428 0l3.3291 3.3291a.6624.6624 0 0 1 .129.177.664.664 0 0 1 .0705.2987.6636.6636 0 0 1-.1998.4759l-3.3288 3.3288a.6667.6667 0 1 1-.9428-.9428L8.057 8.3333H1.6668a.6667.6667 0 1 1 0-1.3333h6.3905L5.8619 4.8047a.6667.6667 0 0 1 0-.9428Z" fill="#2D3440"/></svg>