<svg width="137" height="56" fill="none" xmlns="http://www.w3.org/2000/svg" role="image" aria-label="Логотип магазина Глейси">
  <path d="M52.79 37.76a3.43 3.43 0 0 0-1.91.33s-2.68 2.26-15.89-.34c-9.71-1.92-14.76-1.72-14.76-1.72s1.63-11.24 1.18-14.38a.9.9 0 0 0-.3-.6.89.89 0 0 0-.63-.22c-.97 0-1.56.38-1.56.9a43 43 0 0 1-.22 6.36 5.38 5.38 0 0 1-5.5 3.53c-4.23-.3-5.12-3.37-5.5-5.47-.36-2.1-.58-7.94.53-10.33 0 0 6.38.22 10.39-3.23 4-3.45 3.75-6.44 1.86-7.71-1.9-1.28-6.34-1.06-9.75 2.09a17.41 17.41 0 0 0-4.53 6.3s-5-1.09-3.86-6.37c1.22-5.52 8.69-4.87 8.69-4.87 1.56.3 1.63.45 2.15-.08.51-.52.89-1.87-1.56-1.95C9.17-.08 1.82 1.15.42 6.07c-1.5 5.24 1.27 8.99 5 9.57 0 0-2.04 9.08.48 13.58a7.97 7.97 0 0 0 7.66 4.42c1.47 0 4.07-.83 4.8-2.02 0 0-.34 3.22-.63 4.38 0 0-6.18-.08-8.12.9-3.28 1.76-2.6 5.86-1.33 7.32 1.07 1.24 4.28 1.91 6.6.8a8.87 8.87 0 0 0 4.95-6.91 35 35 0 0 1 11.15 1.22c5.5 1.65 13.15 3.2 15.44 3.2 2.3 0 7.13-.67 7.42-2.6.16-1.27-.31-1.94-1.05-2.17ZM14.12 7.72s2.92-2.25 4.32-.85a1.94 1.94 0 0 1 .08 2.54c-.59.77-2.14 3.21-9.5 4.43 0 0 2.32-4.1 5.1-6.12Zm.24 34.97s-4.03 2.22-4.45-.79a2.86 2.86 0 0 1 1.46-3.24c.7-.35 1.66-.8 5.86-.64a5.72 5.72 0 0 1-2.87 4.67Z" fill="#2D3440"/>
  <path d="M65.51 21.33v6.19c-.07.82-.33 1.6-.76 2.28a5 5 0 0 1-1.05 1.32c-.47.42-.79-.5-.96-.9-1.24-2.61-.64-6.12-.16-8.86.22-1.31-2.42-.97-2.62.2a26.7 26.7 0 0 0-.5 7.1 1.65 1.65 0 0 0-1.18.67c-.46.98-1.79 4.23-3.41 2.93-1.18-.9-1.3-3.37-1.43-4.74a14 14 0 0 1 .73-5.63c-.05.15 1.02-2.54 1.49-1.54a3.3 3.3 0 0 1-.55 2.82c-1.4 1.06.78 1.5 1.62.85 1.6-1.21 2.68-5.13-.06-5.6-3.09-.52-4.84 2.63-5.5 5.13a16.5 16.5 0 0 0-.44 4.38c-.42.76-1.87 3.18-2.71 3.6-1 .52-.98-.2-.95-.68.04-.46.48-4.63.73-7.43a5.23 5.23 0 0 0-.45-3.28c-.38-.78-3.56-2.54-6.36.75a10.75 10.75 0 0 0-2.74 6.3 34 34 0 0 1-.63 1.22c-1.34 2.47-3.02 3.51-3.62 1.8-.6-1.8-.82-3.69-.66-5.57a34.78 34.78 0 0 0 4.5-10.56c1.34-5.99 1.09-8.96.37-9.47-.73-.5-3.79-1.74-5.63 5.62a48.41 48.41 0 0 0-1.42 16.08c-.28.6-.64 1.34-1.1 2.18-1.33 2.47-3 3.51-3.6 1.8-.6-1.8-.81-3.69-.64-5.57a34.78 34.78 0 0 0 4.5-10.56c1.39-6.07 1.11-9.04.39-9.55-.72-.5-3.79-1.74-5.62 5.62s-2.2 15.4-.45 20.79c0 0 .97 3.03 2.77 2.8 1.48-.18 3.25-1.65 4.3-4.4.11.54.26 1.07.43 1.6 0 0 .96 3.03 2.76 2.8 1.22-.14 2.67-1.18 3.69-3.07.63 1.65 2 3 3.75 2.7 2.37-.43 2.86-1.73 2.86-1.73s-.04 2.14 1.48 2.14c1.36 0 2.43-.8 3.5-2.84l.7-1.34c.3 1.94 1.1 3.65 2.67 4.35 2.67 1.16 5-1.06 6.37-3.25a3.88 3.88 0 0 0 2.2 2.36 3.3 3.3 0 0 0 3.36-.84v3.16c-.49-.02-.97.11-1.38.38a10.52 10.52 0 0 0-3.73 9.46 2.92 2.92 0 0 0 1.47 2.3 2.86 2.86 0 0 0 2.72.04c2.76-1.2 3.18-5.39 3.41-7.94.56-6.14.13-12.53.13-18.69 0-1.13-2.59-.6-2.59.32ZM26.93 11.27c.62-2.39 1.19-3.34 1.78-3.34.6 0 .83.64.41 2.7-.77 3.95-2 7.8-3.64 11.46 0 0 .84-8.43 1.45-10.82Zm7.5 0c.61-2.39 1.18-3.34 1.74-3.34.55 0 .83.64.41 2.7-.41 2.06-1.78 7.75-3.64 11.46 0 0 .9-8.43 1.49-10.82Zm11.45 11.2c-.07.53-.4 3.86-.89 5.66-.48 1.8-.81 2.44-2.25 3.06-1.44.62-2.17-1.28-2.17-1.28-1.03-2.88.34-5.4 1.48-7.12 1.14-1.73 2.3-1.88 2.95-1.8a1.2 1.2 0 0 1 .9 1c.03.17.02.33-.02.49Zm19.56 16.19a16.4 16.4 0 0 1-1.4 7.02c-.63.12-.9-.11-1.1-1.12a9.73 9.73 0 0 1 0-2.92 8.11 8.11 0 0 1 2.47-4.63c.04.57.04 1.12.03 1.65Zm16.74-19.87a9.6 9.6 0 0 1-5.08-5.4c-1.14-3.43 2.6-5.96 5.58-5.8 2.98.14 4.58 3.25 4.45 6.02-.05.98-.66 3.2-1.87 2.04a5.74 5.74 0 0 1-1.39-3.26c-.17-1.09-2.76-.44-2.58.7.52 3.3 4.03 6.91 7.04 3.47A6.63 6.63 0 0 0 86 6.46a9.04 9.04 0 0 0-11.15 3.9c-2.43 4.36 2.44 8.62 5.9 10.17 5.55 3 5.75 12.63-1.62 12.7a7.38 7.38 0 0 1-6.85-5.05c-.5-1.5-.25-6.78 1.78-7.19 1.61-.31 1.18-1.8-.4-1.52-3.3.65-4.52 4.96-4.2 7.97.52 4.8 4.97 7.49 9.46 7.45a8.47 8.47 0 0 0 5.5-1.83 8.61 8.61 0 0 0 3.08-4.96 8.47 8.47 0 0 0-1-5.62c-.96-1.7-2.5-3-4.32-3.69Z" fill="#2D3440"/>
  <path d="M98.73 33.07c-2.54-1.4-1.09-6.8-.7-8.88.24-1.34 1.37-3.4-.44-3.86-2.13-.52-4.66 1.52-6.49 3.47 0-2.25.17-4.5.5-6.73a13.94 13.94 0 0 0 6.39-6.64c1.16-2.34 1.72-7.19-2.2-5.77-3.55 1.26-4.77 5.4-5.89 8.71-.42 1.28-.74 2.6-.97 3.93a14 14 0 0 1-1.08.4c-1.48.46-1.29 1.26.2.8l.73-.24c-.71 5.04-.23 10.33.22 15.28 0 .49 2.67 0 2.58-.7-.2-2.21-.37-4.42-.44-6.62.22-.06.4-.18.56-.35a20.15 20.15 0 0 1 3.56-3.53l.41-.3c.6-.48.71-.49.34 0-.14.85-.32 1.7-.55 2.54-.5 2.7-1.9 7.99 1.2 9.69.66.34 3.06-.67 2.07-1.2ZM92.95 11.4c.27-.8.64-1.59.98-2.36.42-.97 1.54-4.29 2.35-2.7.65 1.27-.38 3.34-.83 4.56a10.68 10.68 0 0 1-3.56 4.76c.26-1.44.61-2.86 1.06-4.26Z" fill="#2D3440"/>
  <path d="M108.3 26.77c0-2.95-.33-6.75-3.83-7.06-3.84-.35-5.34 3.7-5.4 6.73a.53.53 0 0 0 .32.51c0 2.83.67 6.53 4.01 6.47 3.72-.06 4.9-3.34 4.9-6.65Zm-4.45 4.93c-2.18-.9-1.98-4.68-1.84-6.51a.49.49 0 0 0-.21-.48c.27-1.8.96-4.49 2.55-3.15 1.26 1.1 1.29 3.73 1.35 5.25.05 1.06-.08 5.55-1.84 4.89h-.01Zm32.5 11.3c-1-2.6-3.2-3.6-5.6-3.7a10.1 10.1 0 0 0-1.01-1.88c-3.48-5.2-11.75-4.49-17.35-1.8 0-.81-.08-1.63-.11-2.45a6.46 6.46 0 0 0 5.8-2.7c1.48-2.14 1.27-5.95.68-8.36-.55-2.27-2.74-1.86-4.39-1.1-.6.28-1.16.66-1.66 1.12 0-.6.1-1.2.15-1.8.1-1.38-2.53-1.03-2.62.2-.41 5.56-.27 11.1-.4 16.66a13.26 13.26 0 0 0-4.77 10.87c0 2.04 1.72 3.6 3.56 2.14 2.57-2 3.36-5.96 3.71-9 .15-1.34.2-2.7.14-4.06a12.38 12.38 0 0 1 13.54-.1 6.23 6.23 0 0 1 2.02 2.43c-1.42.26-2.8.7-4.11 1.33-1.53.74-3.79 2.48-3.68 4.44a2.71 2.71 0 0 0 2.04 2.7.8.8 0 0 0 .25.07c5.47.9 9.54-2.36 8.76-6.95 2.67 1.46 3.66 4.86 2.71 7.78-2.13 6.56-10.32 8.03-15.09 3.64-.52-.47-2.84.52-2.43.9 6.9 6.35 24.06.48 19.86-10.38Zm-26.66-1.6a14.05 14.05 0 0 1-1.02 4.63c-.22.5-.46.97-.72 1.43 0 0-.23.06-.28-.64 0-2.52.72-4.99 2.09-7.1l-.07 1.69Zm2.78-16.05a.7.7 0 0 0 .14-.15 12.8 12.8 0 0 1 1.69-2.26c.47-.53 1-1 1.61-1.36.29.14.58.9.69 1.91.27 2.5.39 9.08-3.51 8.46-.3-.01-.6.04-.9.15 0-2.28.12-4.51.28-6.75Zm11.65 21.34h-.05c-1.5-.36-1.34-1.8-1.14-2.77.43-2.27 3.18-3.5 5.44-3.6 1.15 3.24.26 7.12-4.25 6.37Z" fill="#2D3440"/>
</svg>
