<svg width="24" height="24" fill="none" xmlns="http://www.w3.org/2000/svg"><path d="M14.4 3.8c0-1-.38-1.97-1.03-2.69A3.36 3.36 0 0 0 10.89 0c-.93 0-1.82.4-2.47 1.11a3.97 3.97 0 0 0-1.03 2.7v11.06a5.76 5.76 0 0 0-.8 6.28c.38.79.94 1.46 1.63 1.95a4.6 4.6 0 0 0 4.68.47c.76-.35 1.42-.9 1.94-1.6a5.84 5.84 0 0 0 .85-5.03 5.47 5.47 0 0 0-1.3-2.22V3.8Zm.12 14.8c0 .65-.14 1.3-.43 1.88a3.76 3.76 0 0 1-1.23 1.43 3.37 3.37 0 0 1-3.46.21 3.66 3.66 0 0 1-1.36-1.26 4.08 4.08 0 0 1-.36-3.75c.24-.6.62-1.14 1.1-1.54V3.8c0-.6.23-1.19.62-1.62.4-.43.93-.67 1.5-.67.55 0 1.09.24 1.48.67.4.43.62 1.01.62 1.62v11.63c.47.35.85.83 1.12 1.38.26.55.4 1.16.4 1.78Z" fill="#2D3440"/><path d="M11.65 16.23V3.86c0-.2-.07-.4-.2-.54a.67.67 0 0 0-.5-.22.67.67 0 0 0-.49.22.79.79 0 0 0-.2.54v12.37c-.47.18-.86.53-1.1.99a2.43 2.43 0 0 0 .45 2.88 2 2 0 0 0 1.34.53 2 2 0 0 0 1.35-.53 2.43 2.43 0 0 0 .46-2.88 2.14 2.14 0 0 0-1.11-1ZM20 2.96h-4.17v1.5H20v-1.5ZM20 5.98h-4.17v1.51H20V5.98ZM20 9h-4.17v1.51H20v-1.5ZM20 12.03h-4.17v1.5H20v-1.5Z" fill="#2D3440"/></svg>