<svg width="187" height="70" fill="none" xmlns="http://www.w3.org/2000/svg">
  <g filter="url(#a)">
    <path fill-rule="evenodd" clip-rule="evenodd" d="M17 5a1 1 0 0 0-1 1v10l-7 7 7 7v26a1 1 0 0 0 1 1h160a1 1 0 0 0 1-1V6a1 1 0 0 0-1-1H17Z" fill="#fff"/>
    <path d="m16 16 .35.35.15-.14V16H16Zm-7 7-.35-.35-.36.35.36.35L9 23Zm7 7h.5v-.2l-.15-.15L16 30Zm.5-24c0-.28.22-.5.5-.5v-1c-.83 0-1.5.67-1.5 1.5h1Zm0 10V6h-1v10h1Zm-7.15 7.35 7-7-.7-.7-7 7 .7.7Zm7 6.3-7-7-.7.7 7 7 .7-.7ZM16.5 56V30h-1v26h1Zm.5.5a.5.5 0 0 1-.5-.5h-1c0 .83.67 1.5 1.5 1.5v-1Zm160 0H17v1h160v-1Zm.5-.5a.5.5 0 0 1-.5.5v1c.83 0 1.5-.67 1.5-1.5h-1Zm0-50v50h1V6h-1Zm-.5-.5c.28 0 .5.22.5.5h1c0-.83-.67-1.5-1.5-1.5v1Zm-160 0h160v-1H17v1Z" fill="#B9B9B9"/>
  </g>
  <path d="M25.06 27h3.15c2.06 0 2.91-1 2.91-2.32 0-1.38-.95-2.13-1.75-2.18v-.09c.75-.2 1.41-.7 1.41-1.82 0-1.28-.85-2.32-2.67-2.32h-3.05V27Zm1.05-.94v-3.03h2.15c1.14 0 1.86.77 1.86 1.65 0 .77-.53 1.38-1.91 1.38h-2.1Zm0-3.95v-2.9h2c1.16 0 1.67.61 1.67 1.38 0 .92-.75 1.52-1.7 1.52H26.1ZM32.73 27h3.08c1.33 0 2.13-.75 2.13-1.76 0-1.02-.78-1.58-1.5-1.68.74-.16 1.26-.57 1.26-1.37 0-1.04-.9-1.74-2.3-1.74h-2.67V27Zm.95-.92v-2.01h2.13c.7 0 1.1.41 1.1 1.09 0 .57-.4.92-1.1.92h-2.13Zm0-2.88v-1.82h1.72c.8 0 1.3.33 1.3.88 0 .59-.5.94-1.3.94h-1.72Zm8.53 3.94c1.33 0 2.3-.67 2.6-1.66l-.97-.27c-.25.68-.84 1.02-1.63 1.02-1.18 0-2-.76-2.04-2.16h4.75v-.43c0-2.44-1.45-3.27-2.81-3.27-1.78 0-2.95 1.4-2.95 3.4 0 2.02 1.16 3.37 3.05 3.37Zm-2.04-3.94c.06-1.02.78-1.93 1.94-1.93 1.09 0 1.79.82 1.79 1.93h-3.73Zm5.58 5.68h1V27h4.85v1.88h1v-2.82h-1v-5.6h-4.16l-.23 2.59c-.15 1.83-.39 2.46-.92 3.01h-.54v2.82Zm1.69-2.82c.46-.6.62-1.65.76-3.01l.17-1.66h2.22v4.67h-3.15Zm7.5-.54v-5.07h-1V27h1.17l3.14-5.06V27h1v-6.55H58.1l-3.16 5.07Zm5.27-4.13h2.16V27h1v-5.6h2.15v-.95h-5.31v.94Zm9.19 5.75c1.32 0 2.3-.67 2.6-1.66l-.97-.27c-.25.68-.85 1.02-1.63 1.02-1.19 0-2-.76-2.05-2.16h4.76v-.43c0-2.44-1.45-3.27-2.82-3.27-1.77 0-2.95 1.4-2.95 3.4 0 2.02 1.16 3.37 3.06 3.37Zm-2.05-3.94c.07-1.02.8-1.93 1.94-1.93 1.1 0 1.8.82 1.8 1.93h-3.74Zm10.67-2.75H77V27h1v-2.8h3.14V27h1v-6.55h-1v2.82h-3.13v-2.82Zm7.9 6.7c1.14 0 1.74-.61 1.94-1.04h.06V27h1v-4.31c0-2.08-1.58-2.32-2.42-2.32-.99 0-2.11.34-2.62 1.53l.95.34c.22-.47.75-.98 1.7-.98.93 0 1.39.49 1.39 1.33v.03c0 .49-.5.44-1.7.6-1.2.15-2.53.42-2.53 1.92 0 1.28.99 2.01 2.23 2.01Zm.15-.9c-.8 0-1.38-.36-1.38-1.06 0-.76.7-1 1.49-1.1.42-.06 1.56-.18 1.74-.38v.92c0 .82-.65 1.62-1.85 1.62Zm4.28-.92c.03 1.07 1.06 1.8 2.45 1.8 1.43 0 2.47-.76 2.47-1.95 0-.82-.49-1.49-1.22-1.54v-.07c.62-.19 1.09-.64 1.09-1.38 0-1.03-.89-1.82-2.27-1.82-1.36 0-2.34.75-2.37 1.8h1.06c.03-.54.6-.91 1.36-.91.76 0 1.2.38 1.2.97 0 .54-.38.95-1.18.95H91.8v.9h1.13c.8 0 1.31.44 1.31 1.1 0 .74-.66 1.05-1.47 1.05-.78 0-1.31-.3-1.36-.9h-1.07ZM96.69 27h3.08c1.33 0 2.13-.75 2.13-1.76 0-1.02-.78-1.58-1.5-1.68.74-.16 1.26-.57 1.26-1.37 0-1.04-.9-1.74-2.3-1.74H96.7V27Zm.95-.92v-2.01h2.13c.7 0 1.1.41 1.1 1.09 0 .57-.4.92-1.1.92h-2.13Zm0-2.88v-1.82h1.72c.8 0 1.3.33 1.3.88 0 .59-.5.94-1.3.94h-1.72Zm7.71 3.95c1.14 0 1.74-.61 1.94-1.04h.05V27h1.01v-4.31c0-2.08-1.58-2.32-2.42-2.32-.99 0-2.11.34-2.63 1.53l.96.34c.22-.47.74-.98 1.7-.98.93 0 1.39.49 1.39 1.33v.03c0 .49-.5.44-1.7.6-1.2.15-2.53.42-2.53 1.92 0 1.28.99 2.01 2.23 2.01Zm.15-.9c-.8 0-1.38-.36-1.38-1.06 0-.76.7-1 1.49-1.1.42-.06 1.56-.18 1.73-.38v.92c0 .82-.64 1.62-1.84 1.62Zm5.7-5.8h-1.01V27h1v-2.8h3.14V27h1v-6.55h-1v2.82h-3.14v-2.82Zm6.98 5.07v-5.07h-1.01V27h1.18l3.13-5.06V27h1v-6.55h-1.15l-3.15 5.07Zm8.9 1.62c1.32 0 2.3-.67 2.6-1.66l-.97-.27c-.25.68-.85 1.02-1.64 1.02-1.17 0-1.99-.76-2.04-2.16h4.75v-.43c0-2.44-1.44-3.27-2.8-3.27-1.78 0-2.96 1.4-2.96 3.4 0 2.02 1.16 3.37 3.06 3.37Zm-2.05-3.94c.07-1.02.8-1.93 1.94-1.93 1.1 0 1.8.82 1.8 1.93h-3.74ZM25.57 45.45c.9 0 1.55-.48 1.92-1.5l2.8-7.48-1.1-.02-1.82 5.22h-.06l-1.81-5.22h-1.1l2.43 6.58-.19.52c-.36 1-.82 1.09-1.55.9l-.25.89c.1.05.39.11.73.11ZM30.48 43h.34c1.45 0 1.87-1.13 1.96-3.27l.1-2.34h2.4V43h1.01v-6.55h-4.36l-.12 2.9c-.08 2.2-.3 2.71-1.09 2.71h-.24V43Zm8.66-1.48v-5.07h-1V43h1.18l3.13-5.06V43h1v-6.55H42.3l-3.16 5.07Zm11.3-5.07h-1v5.61h-3.13v-5.6H45.3V43h5.06v2.11h1v-3.05h-.91v-5.6Zm3.48 2.37v-2.37h-1V43h2.74c1.54 0 2.37-.94 2.37-2.11 0-1.2-.84-2.07-2.37-2.07h-1.74ZM59.07 43h1v-6.55h-1V43Zm-5.15-3.24h1.74c.8 0 1.36.49 1.36 1.18 0 .66-.56 1.12-1.36 1.12h-1.74v-2.3Zm9.5 2.05h-1.1l-.05.47c-.12 1.16-.36 2.31-.47 2.85h.76c.2-.58.64-1.9.79-2.86l.07-.46Zm4.54 3.06h1V43h4.84v1.88h1v-2.82h-1v-5.6h-4.16l-.22 2.59c-.16 1.83-.39 2.46-.92 3.01h-.54v2.81Zm1.68-2.8c.46-.61.63-1.66.77-3.02l.17-1.66h2.22v4.67h-3.16Zm9.16 1.07c1.77 0 2.97-1.35 2.97-3.38 0-2.04-1.2-3.4-2.97-3.4-1.77 0-2.96 1.36-2.96 3.4 0 2.03 1.19 3.38 2.96 3.38Zm0-.9c-1.34 0-1.96-1.17-1.96-2.48s.62-2.49 1.96-2.49c1.35 0 1.96 1.18 1.96 2.5 0 1.3-.61 2.46-1.96 2.46Zm8.08-.6-2.25-5.19H83.3V43h1v-5.1l2.17 5.1h.82l2.17-5v5h1v-6.55h-1.3l-2.28 5.19Zm7.35 1.51c1.14 0 1.74-.61 1.94-1.04h.05V43h1v-4.31c0-2.08-1.58-2.32-2.41-2.32-.99 0-2.11.34-2.63 1.53l.96.34c.22-.47.74-.98 1.7-.98.93 0 1.38.49 1.38 1.33v.03c0 .49-.5.44-1.68.6-1.22.15-2.54.42-2.54 1.92 0 1.28.99 2.01 2.23 2.01Zm.15-.9c-.8 0-1.38-.36-1.38-1.06 0-.76.7-1 1.49-1.1.42-.06 1.56-.18 1.73-.38v.92c0 .82-.64 1.62-1.84 1.62Zm9.07-.73v-5.07h-1.01V43h1.18l3.13-5.06V43h1v-6.55h-1.15l-3.15 5.07Zm9.52 1.48h1.01v-2.76h.9l2.15 2.76h1.3l-2.68-3.4 2.64-3.15H117l-2.34 2.85h-.67v-2.85h-1V43Zm6.45 0h3.09c1.32 0 2.13-.75 2.13-1.76 0-1.02-.78-1.58-1.5-1.68.73-.16 1.26-.57 1.26-1.37 0-1.04-.9-1.74-2.3-1.74h-2.68V43Zm.95-.92v-2.01h2.14c.69 0 1.1.41 1.1 1.09 0 .57-.41.92-1.1.92h-2.14Zm0-2.88v-1.83h1.73c.8 0 1.3.34 1.3.9 0 .58-.5.93-1.3.93h-1.72Zm7.72 3.95c1.14 0 1.73-.61 1.94-1.04h.05V43h1v-4.31c0-2.08-1.58-2.32-2.42-2.32-.98 0-2.1.34-2.62 1.53l.95.34c.23-.47.75-.98 1.7-.98.93 0 1.39.49 1.39 1.33v.03c0 .49-.5.44-1.69.6-1.21.15-2.54.42-2.54 1.92 0 1.28 1 2.01 2.24 2.01Zm.15-.9c-.8 0-1.38-.36-1.38-1.06 0-.76.7-1 1.48-1.1.43-.06 1.57-.18 1.74-.38v.92c0 .82-.65 1.62-1.84 1.62Zm4.68 3.2h1V42h.1c.21.36.64 1.15 1.9 1.15 1.64 0 2.78-1.32 2.78-3.4 0-2.06-1.14-3.37-2.8-3.37-1.28 0-1.67.78-1.89 1.12h-.12v-1.04h-.97v9Zm.99-5.72c0-1.47.65-2.46 1.87-2.46 1.28 0 1.91 1.08 1.91 2.46 0 1.4-.65 2.5-1.9 2.5-1.22 0-1.88-1.02-1.88-2.5Zm5.47-2.34h2.16V43h1v-5.6h2.16v-.95h-5.32v.94Zm7.79 4.13v-5.07h-1V43h1.17l3.13-5.06V43h1.01v-6.55h-1.16l-3.15 5.07Zm6.15 3.93h1V42h.1c.22.36.64 1.15 1.9 1.15 1.64 0 2.78-1.32 2.78-3.4 0-2.06-1.14-3.37-2.8-3.37-1.27 0-1.67.78-1.89 1.12h-.12v-1.04h-.97v9Zm1-5.72c0-1.47.64-2.46 1.87-2.46 1.28 0 1.9 1.08 1.9 2.46 0 1.4-.64 2.5-1.9 2.5-1.21 0-1.88-1.02-1.88-2.5Zm7.32-.9v-2.38h-1V43h2.74c1.53 0 2.37-.94 2.37-2.11 0-1.2-.84-2.07-2.37-2.07h-1.74ZM166.8 43h1v-6.55h-1V43Zm-5.15-3.24h1.74c.8 0 1.36.49 1.36 1.18 0 .66-.56 1.12-1.36 1.12h-1.74v-2.3Z" fill="#565C66"/>
  <defs>
    <filter id="a" x=".29" y=".5" width="186.21" height="69" filterUnits="userSpaceOnUse" color-interpolation-filters="sRGB">
      <feFlood flood-opacity="0" result="BackgroundImageFix"/>
      <feColorMatrix in="SourceAlpha" values="0 0 0 0 0 0 0 0 0 0 0 0 0 0 0 0 0 0 127 0" result="hardAlpha"/>
      <feOffset dy="4"/>
      <feGaussianBlur stdDeviation="4"/>
      <feColorMatrix values="0 0 0 0 0.7625 0 0 0 0 0.7625 0 0 0 0 0.7625 0 0 0 0.2 0"/>
      <feBlend in2="BackgroundImageFix" result="effect1_dropShadow_884:2843"/>
      <feBlend in="SourceGraphic" in2="effect1_dropShadow_884:2843" result="shape"/>
    </filter>
  </defs>
</svg>
