<svg width="24" height="24" viewBox="0 0 16 16" fill="none" xmlns="http://www.w3.org/2000/svg">
  <path fill-rule="evenodd" clip-rule="evenodd" d="M16 8A8 8 0 1 1 0 8a8 8 0 0 1 16 0ZM8.4 9.98h-.5s-1.05.06-1.98-.79c-1.01-.92-1.9-2.76-1.9-2.76s-.06-.12 0-.18.23-.07.23-.07H5.4s.11.01.19.06c.06.04.1.12.1.12s.18.4.43.78c.47.72.7.88.86.8.24-.11.16-1.02.16-1.02s0-.33-.11-.48c-.1-.11-.28-.14-.36-.15-.06-.01.04-.14.18-.2.2-.09.57-.1 1-.09.33 0 .43.02.56.05.3.06.3.27.27.71a9.7 9.7 0 0 0-.01.6c-.01.22-.02.48.15.58.09.05.3 0 .84-.8.25-.37.44-.81.44-.81s.04-.08.11-.12c.07-.03.15-.02.15-.02h1.2s.37-.04.43.1c.06.15-.14.5-.63 1.07-.46.54-.69.75-.67.92.01.13.16.25.44.48a3.4 3.4 0 0 1 .8.8c.26.4-.3.42-.3.42l-1.06.02s-.23.04-.54-.15c-.15-.1-.3-.25-.45-.4-.23-.22-.44-.43-.62-.38-.3.08-.28.65-.28.65s0 .12-.07.18c-.07.07-.22.08-.22.08Z" fill="#2D3440"/>
</svg>
