<svg width="24" height="24" viewBox="0 0 28 28" fill="none" xmlns="http://www.w3.org/2000/svg">
  <path fill-rule="evenodd" clip-rule="evenodd" d="M26 14a12 12 0 1 1-24 0 12 12 0 0 1 24 0Zm-11.41 2.97h-.72s-1.58.09-2.98-1.18c-1.52-1.39-2.86-4.14-2.86-4.14s-.07-.18 0-.27c.1-.1.36-.1.36-.1l1.72-.01s.16.02.27.1c.1.05.15.17.15.17s.28.61.65 1.17c.71 1.08 1.05 1.32 1.29 1.2.35-.16.25-1.53.25-1.53s0-.5-.18-.71c-.14-.17-.41-.22-.53-.24-.1-.01.06-.2.26-.3.31-.13.86-.13 1.5-.13.5 0 .65.03.84.07.46.1.44.41.41 1.08l-.02.7v.18c-.01.34-.02.73.23.88.13.07.45 0 1.26-1.19.38-.56.66-1.23.66-1.23s.07-.12.16-.17c.1-.05.24-.04.24-.04h1.8s.54-.06.63.15c.1.23-.2.75-.94 1.61-.7.82-1.03 1.12-1 1.38.01.2.23.38.66.72.89.73 1.13 1.1 1.18 1.2l.01.01c.4.58-.44.62-.44.62l-1.6.02s-.34.06-.8-.2a3.94 3.94 0 0 1-.69-.6c-.33-.34-.65-.66-.91-.58-.45.12-.44.96-.44.96s0 .18-.1.28c-.1.1-.32.12-.32.12Z" fill="#FCFCFC"/>
  <path d="M14 24A10 10 0 0 1 4 14H0a14 14 0 0 0 14 14v-4Zm10-10a10 10 0 0 1-10 10v4a14 14 0 0 0 14-14h-4ZM14 4a10 10 0 0 1 10 10h4A14 14 0 0 0 14 0v4Zm0-4A14 14 0 0 0 0 14h4A10 10 0 0 1 14 4V0Z" fill="#FCFCFC" fill-opacity="1"/>
</svg>
